<?xml version="1.0" encoding="UTF-8"?>
<!-- Created with Inkscape (http://www.inkscape.org/) -->
<svg width="42.226mm" height="42.226mm" version="1.1" viewBox="0 0 42.226 42.226" xml:space="preserve" xmlns="http://www.w3.org/2000/svg"><defs><linearGradient id="linearGradient2" x1="149.59" x2="138.41" y1="118.9" y2="149.59" gradientUnits="userSpaceOnUse"><stop stop-color="#a3f648" offset="0"/><stop stop-color="#3a7b25" offset="1"/></linearGradient><radialGradient id="radialGradient8" cx="143.73" cy="133.77" r="20.96" gradientTransform="matrix(.88843 0 0 .88843 16.036 14.925)" gradientUnits="userSpaceOnUse"><stop stop-color="#7f41ca" offset="0"/><stop stop-color="#431c86" offset="1"/></radialGradient><linearGradient id="linearGradient19" x1="143.68" x2="144.32" y1="126.67" y2="119.39" gradientUnits="userSpaceOnUse"><stop stop-color="#3d6c0f" offset="0"/><stop stop-color="#88df37" offset="1"/></linearGradient></defs><g transform="translate(-122.62 -112.66)"><circle id="Circle-B" cx="143.73" cy="133.77" r="21.113" stop-color="#000000" style="-inkscape-stroke:none;font-variation-settings:normal;paint-order:stroke markers fill"/><circle id="Circle-W" cx="143.73" cy="133.77" r="20.162" fill="#fff" stop-color="#000000" style="-inkscape-stroke:none;font-variation-settings:normal;paint-order:stroke markers fill"/><circle id="Circle-P" cx="143.73" cy="133.77" r="18.533" fill="url(#radialGradient8)" stop-color="#000000" style="-inkscape-stroke:none;font-variation-settings:normal;paint-order:stroke markers fill"/></g><g transform="translate(-122.62 -112.66)" style="mix-blend-mode:normal"><path d="m144 122c-0.24834 2e-3 -0.48813-2e-3 -0.73533-0.0217-0.78873-0.0607-1.6437-0.3115-2.7888-0.83158-0.42646-0.19369-1.025-1e-3 -1.4595 0.15431-1.3608 0.48772-2.5243 0.95169-3.8931 1.8945-2.411 1.6607-4.1215 3.5293-5.8747 5.329-0.56187 0.57678-0.57642 1.0582-0.28099 1.5217 1.1607 1.8208 1.9545 2.6561 3.1927 3.7437 0.65402 0.57444 1.0988 0.20646 1.5556-0.202 0.42972-0.38424 0.85499-0.72313 1.2749-1.1158-0.0562 0.35877-0.48047 8.546-0.6215 12.144-0.0255 0.65002 0.21474 1.167 0.67901 1.3946 2.6412 1.2952 4.7793 1.4059 8.9514 1.3942m3.2e-4 -25.405c0.24834 2e-3 0.48813-2e-3 0.73533-0.0217 0.78873-0.0607 1.6437-0.3115 2.7888-0.83158 0.42646-0.19369 1.025-1e-3 1.4595 0.15431 1.3608 0.48772 2.5243 0.95169 3.8931 1.8945 2.411 1.6607 4.1215 3.5293 5.8747 5.329 0.56187 0.57678 0.57642 1.0582 0.28099 1.5217-1.1607 1.8208-1.9545 2.6561-3.1927 3.7437-0.65402 0.57444-1.0988 0.20646-1.5556-0.202-0.42972-0.38424-0.85499-0.72313-1.2749-1.1158 0.0562 0.35877 0.48047 8.546 0.6215 12.144 0.0255 0.65002-0.21474 1.167-0.67901 1.3946-2.6412 1.2952-4.7793 1.4059-8.9514 1.3942" fill="url(#linearGradient2)" stroke="#2a3f15" stroke-linecap="round" stroke-linejoin="round" stroke-width=".4"/><path d="m140.36 121.31c-0.2652 2.4505 1.5819 3.4367 3.6355 3.4367l4.6e-4 -2.5551c-1.7854 0.0197-2.584-0.50885-3.636-0.88161zm7.2711 0c0.2652 2.4505-1.5819 3.4367-3.6355 3.4367l-4.6e-4 -2.5551c1.7854 0.0197 2.584-0.50885 3.636-0.88161z" fill="url(#linearGradient19)" style="-inkscape-stroke:none;font-variation-settings:normal;paint-order:stroke markers fill"/><g fill="none"><path d="m139.55 121.26c-0.624 1.1716 0.34877 2.6604 0.49975 2.8792 1.0701 1.5513 2.9318 1.6695 3.9519 1.6656m4.4519-4.5598c0.62795 1.1694-0.33979 2.6615-0.49003 2.8809-1.0649 1.5549-2.9261 1.6794-3.9462 1.6789" stroke="#2a3f15" stroke-linejoin="round" stroke-opacity=".3302" stroke-width=".2" style="font-variation-settings:normal;paint-order:stroke markers fill"/><g stroke="#59912b" stroke-linecap="round" stroke-linejoin="round" stroke-width=".4"><path d="m144.83 141.86 4.5391-3.1196m-12.095-3.419c0.062 1.3122 0.13552 3.806 7.433 3.9746" style="font-variation-settings:normal;paint-order:stroke markers fill"/><path d="m149.62 135.93c-1.3167-3.1858-9.5702-4.1319-11.528-0.88575" style="font-variation-settings:normal;paint-order:stroke markers fill"/><path d="m150.42 135.96-0.78491 0.0145" style="font-variation-settings:normal;paint-order:stroke markers fill"/></g><path d="m150.07 135.99c-0.11741-3.4669-8.451-4.7774-11.424-2.4461-0.10463 0.082-2.0226 1.6532-0.28591 3.3749 1.0064 0.99774 3.139 1.8501 6.4204 1.7214" stroke="#1f3f05" stroke-linejoin="bevel" stroke-width="1.1" style="paint-order:stroke markers fill"/></g><path d="m143.29 135.22 1.1936 2.7154 0.32654 1.3799-0.15934 2.5665 4.6-3.1469c0.344-0.24286 0.0838-0.41642-0.25237-0.59972z" fill="#1f3f05" style="paint-order:stroke markers fill"/></g></svg>
